<svg xmlns="http://www.w3.org/2000/svg" viewBox="0 0 309.59 339.69">
  <title>logo_icon_violet</title>
  <g id="Layer_2" data-name="Layer 2">
    <g id="Layer_1-2" data-name="Layer 1">
      <path d="M280.84,63.87,183.53,7.7A57.49,57.49,0,0,0,126,7.7L28.75,63.87A57.49,57.49,0,0,0,0,113.67V226a57.46,57.46,0,0,0,28.75,49.79L126,332a57.49,57.49,0,0,0,57.49,0l97.31-56.17A57.48,57.48,0,0,0,309.59,226V113.67A57.51,57.51,0,0,0,280.84,63.87Zm-126,190.25A227.6,227.6,0,0,0,77.56,125.28a227.37,227.37,0,0,0,77.24,13.44A227.5,227.5,0,0,0,232,125.28,227.54,227.54,0,0,0,154.8,254.12Z" style="fill: #290a63"/>
    </g>
  </g>
</svg>
